# xmcd
#
# Track frame offsets:
#	150
#	13480
#	26450
#	41751
#	55517
#	65898
#	80518
#	95453
#	109348
#	123288
#	136654
#	150463
#	161835
#	176279
#	190962
#	205932
#	221470
#	236546
#	248918
#	264117
#	278697
#	292928
#	306512
#	320243
#
# Disc length: 4462
#
# Revision: 2
# Processed by: cddbd v1.5.1PL0 Copyright (c) Steve Scherf et al.
# Submitted via: EasyCDDAExtractor 6.0.0.1
# Normalized: r1:DSETVAR1
#
DISCID=57116c18
DTITLE=Various Artist - 50 ans de chansons de charme CD 2
DYEAR=1999
DGENRE=Rétro
TTITLE0=Lys Gauty - Tes bras
TTITLE1=Jacques Pills - Sans Vous
TTITLE2=Edith Piaf - C'est lui que mon coeur a choisi
TTITLE3=Lyne Clevers - Je voudrais en savoir d'avantage
TTITLE4=Charles Trenet - Vous êtes jolie
TTITLE5=Tino Rossi - Maria
TTITLE6=Jacqueline François - La Seine
TTITLE7=Maurice Chevalier - L'amour est passé près de vous
TTITLE8=Pierre Dudan - Clopin-clopant
TTITLE9=Jean Sablon - J'attendrai
TTITLE10=Lucienne Delyle - Prière à Zumba
TTITLE11=Luis mariano - Maria Louisa
TTITLE12=Alibert - Le plus beau tango du monde
TTITLE13=Léo Marjane - La chapelle au clair de lune
TTITLE14=Jeanne Aubert - C'est une petite étoile
TTITLE15=André dassary - Eperdument
TTITLE16=Charles Trenet - La mer
TTITLE17=Les Soeurs Etienne - Cheveux au vent
TTITLE18=Luis Mariano - Je chante pour toi que j'aime
TTITLE19=Yves Montand - A Paris
TTITLE20=Tino Rossi - Tant qu'il y aura des étoiles
TTITLE21=Tohama - Notre rue
TTITLE22=Guy Berry - Petit homme c'est l'heure de faire dodo
TTITLE23=Yves Montand - Maître Piere
EXTD=
EXTT0=
EXTT1=
EXTT2=
EXTT3=
EXTT4=
EXTT5=
EXTT6=
EXTT7=
EXTT8=
EXTT9=
EXTT10=
EXTT11=
EXTT12=
EXTT13=
EXTT14=
EXTT15=
EXTT16=
EXTT17=
EXTT18=
EXTT19=
EXTT20=
EXTT21=
EXTT22=
EXTT23=
PLAYORDER=
